<svg version="1.2" xmlns="http://www.w3.org/2000/svg" viewBox="0 0 24 24" width="256" height="256"><style>.a{fill:#5865f2}</style><path class="a" d="m20.3 4.4q-0.6-0.3-1.2-0.5-0.6-0.3-1.2-0.4-0.6-0.2-1.2-0.4-0.6-0.1-1.3-0.2 0 0 0 0 0 0 0 0 0 0 0 0 0 0 0 0c-0.3 0.4-0.5 0.9-0.7 1.2q-2.7-0.4-5.4 0c-0.2-0.4-0.4-0.8-0.7-1.2q0 0 0 0 0 0 0 0 0 0 0 0 0 0 0 0-0.7 0.1-1.3 0.2-0.6 0.2-1.2 0.4-0.6 0.1-1.2 0.4-0.6 0.2-1.2 0.5 0 0 0 0 0 0 0 0 0 0 0 0-0.1 0-0.1 0c-3.1 4.6-3.9 9.2-3.5 13.7q0 0 0 0 0 0 0 0 0 0 0 0 0 0 0 0c2.1 1.5 4.1 2.4 6 3q0 0 0 0 0.1 0 0.1 0 0 0 0 0 0 0 0 0 0.7-0.9 1.2-2 0 0 0 0 0 0 0 0 0-0.1 0-0.1 0 0 0 0-1-0.4-1.9-0.9 0 0 0 0 0 0 0 0 0-0.1 0-0.1 0 0 0 0 0.2-0.1 0.4-0.3 0 0 0 0 0 0 0 0 0 0 0 0 0.1 0 0.1 0c3.9 1.8 8.1 1.8 12 0q0 0 0 0 0.1 0 0.1 0 0 0 0 0 0 0 0 0 0.2 0.2 0.4 0.3 0 0 0 0 0 0 0 0.1 0 0 0 0 0 0 0 0-0.3 0.2-0.5 0.3-0.2 0.1-0.5 0.2-0.2 0.1-0.4 0.2-0.3 0.1-0.5 0.2 0 0 0 0 0 0 0 0.1-0.1 0-0.1 0 0 0 0.1 0 0.5 1.1 1.2 2 0 0 0 0 0 0 0 0 0 0 0 0 0.1 0 0.1 0c1.9-0.6 3.9-1.5 6-3q0 0 0 0 0 0 0 0 0 0 0 0 0 0 0 0c0.5-5.2-0.8-9.7-3.6-13.7q0 0 0 0 0 0 0 0 0 0 0 0 0 0 0 0zm-12.3 10.9c-1.2 0-2.1-1.1-2.1-2.4 0-1.3 0.9-2.4 2.1-2.4 1.2 0 2.2 1.1 2.2 2.4 0 1.3-1 2.4-2.2 2.4zm8 0c-1.2 0-2.2-1.1-2.2-2.4 0-1.3 1-2.4 2.2-2.4 1.2 0 2.2 1.1 2.2 2.4 0 1.3-1 2.4-2.2 2.4z"/></svg>